<svg version="1.2" xmlns="http://www.w3.org/2000/svg" viewBox="0 0 1080 1080" width="1080" height="1080">
	<title>autoMate(logo)</title>
	<style>
		.s0 { fill: #06b6d4 } 
		.s1 { opacity: .98;fill: #06b6d4 } 
		.s2 { opacity: .99;fill: #06b6d4 } 
	</style>
	<path class="s0" d="m236.6 366.86l-0.27-0.75c-4.01-10.75-12.82-20.87-19.25-30.37-4.27-6.31-8.13-12.87-12.24-19.28-4-6.22-8.58-12.55-10.13-19.92-0.88-4.18-0.3-8.08 1.46-11.95 1.66-3.66 3.71-6.53 6.34-9.55 12.76-14.75 27.81-27.96 41.61-41.73l20.53-20.89c3.98-4.07 7.89-8.46 12.25-12.12 2-1.69 4.23-3.01 6.72-3.86 8.2-2.8 16.29-0.72 23.69 3.16 11.89 6.23 23.18 14.94 34.24 22.55 6.65 4.58 13.66 10.23 21.46 12.65 3.46 1.08 6.34 0.94 9.79-0.1 6.7-2.02 13.27-5.96 19.55-9.03q9.74-4.73 19.77-8.79c7.24-3.02 14.66-5.45 22.05-8.04 3.19-1.12 6.84-2.08 9.84-3.59 2.42-1.21 4.33-3.58 5.54-5.96 2.17-4.29 2.81-9.83 3.8-14.51 2.93-13.9 8.97-50.34 14.68-60.47 2.5-4.42 6.32-7.76 11.14-9.38 11.43-3.84 55.82-2.44 69.69-2.49 14.03-0.06 28.76-1.04 42.72 0.19 3.87 0.34 7.86 1.17 11.31 3.01 7.28 3.87 10.09 10.24 12.18 17.77 2.58 9.31 10.63 39.21 9.68 47.05-0.46 3.78-3.35 7.99-5.22 11.26-5.3 9.27-11.45 18.11-17.32 27.03q-15.83 24.12-32.11 47.95c-5.24 7.76-12.43 21.04-18.56 27.16q-0.35 0.06-0.7 0.13c-7.88 1.38-16.51 0.95-24.53 1.34-10.25 0.49-21.01 1.78-31.15 3.43-10.79 1.76-21.51 5.06-31.84 8.55-5.9 1.99-11.93 3.71-17.7 6.08-28.57 11.76-57.69 30.06-79.91 51.61-10.59 10.27-19.94 22.28-28.48 34.28-24.46 34.36-40.83 79.94-43.45 122.15-1.29 20.68 0.37 40.84 3.91 61.2 10.66 63.53 46.26 120.17 98.89 157.33 9.55 6.7 20.06 12.72 30.27 18.4 4.08 2.28 8.91 3.94 12.66 6.68 1.42 1.03 2.93 2.39 3.32 4.17 1.14 5.25-29.03 81.07-33.7 86.97-0.84 1.06-1.59 1.18-2.88 1.31-12.48 1.3-28.93-14.96-40.93-13.41-4.5 0.57-9.8 4.55-13.56 6.94-8.69 5.52-17.09 11.45-25.52 17.36-17.25 12.08-34.24 24.55-53.41 7.29-10.28-9.26-19.71-19.74-29.56-29.46-13.01-12.84-31.94-28.99-41.81-44.07-2.94-4.49-4.76-9.36-4.96-14.78-0.15-4.27 0.66-8.43 2.26-12.39 4.37-10.79 21.5-32.88 28.93-43.26 4.17-5.84 8.79-10.84 10.52-18.02-2.66-7.92-7.16-15.17-10.94-22.6-7.01-13.75-13.63-28.03-17.61-42.99 0.59-0.9 0.85-1.55 0.84-2.65-0.04-4.15-3.1-14.72-6.32-17.32-1.6-1.29-4.9-0.46-6.83-0.18-3.27-0.28-6.82-1.48-10.04-2.25-6.47-1.55-12.9-3.09-19.47-4.15l1.22-0.22 0.22-0.51c-2.62-2.92-13.37-3.07-17.66-3.86l1.57-0.02c-0.75-0.29-1.58-0.65-2.38-0.75-1.63-0.22-2.49 0.23-3.8 1.1-7.27-1.53-15.41-2.73-21.96-6.43-5.35-3.02-8.49-6.85-10-12.77-3.71-14.59-2.06-48.46-2.04-64.88 0.02-14.53-0.9-29.84 0.74-44.24 0.52-4.49 1.47-9.12 3.9-13 2.34-3.75 6.05-6.47 10.06-8.22 7.86-3.44 24.78-5.73 33.86-7.46 12.44-2.38 24.77-5.05 37.17-7.63 0.69-0.26 1.48-0.51 2.13-0.88 5.52-3.04 6.72-14.93 8.68-20.6 3.62-13.08 9.48-26.27 15.41-38.43 4.1-8.4 9.57-16.72 11.64-25.89z"/>
	<path id="Layer copy" class="s0" d="m236.6 366.86l-0.27-0.75c-4.01-10.75-12.82-20.87-19.25-30.37-4.27-6.31-8.13-12.87-12.24-19.28-4-6.22-8.58-12.55-10.13-19.92-0.88-4.18-0.3-8.08 1.46-11.95 1.66-3.66 3.71-6.53 6.34-9.55 12.76-14.75 27.81-27.95 41.61-41.73l20.53-20.89c3.98-4.07 7.89-8.46 12.25-12.12 2-1.69 4.23-3.01 6.72-3.86 8.2-2.8 16.29-0.72 23.69 3.16 11.89 6.24 23.18 14.94 34.24 22.55 6.65 4.58 13.66 10.23 21.46 12.65 3.46 1.08 6.34 0.94 9.79-0.1 6.7-2.02 13.27-5.96 19.55-9.03q9.74-4.73 19.77-8.79c7.24-3.02 14.66-5.45 22.05-8.04 3.19-1.12 6.84-2.08 9.84-3.59 2.42-1.21 4.33-3.58 5.54-5.96 2.17-4.29 2.81-9.83 3.8-14.51 2.93-13.9 8.97-50.34 14.68-60.47 2.5-4.42 6.32-7.76 11.14-9.38 11.43-3.84 55.82-2.44 69.69-2.49 14.03-0.06 28.76-1.04 42.72 0.19 3.87 0.34 7.86 1.17 11.31 3.01 7.28 3.87 10.09 10.24 12.18 17.77 2.58 9.32 10.63 39.21 9.68 47.05-0.46 3.78-3.35 7.99-5.22 11.26-5.3 9.27-11.45 18.11-17.32 27.03q-15.83 24.12-32.11 47.95c-5.24 7.76-12.43 21.04-18.56 27.16q-0.35 0.06-0.7 0.13c-7.88 1.38-16.51 0.95-24.53 1.34-10.25 0.49-21.01 1.78-31.15 3.43-10.79 1.76-21.51 5.06-31.84 8.55-5.9 1.99-11.93 3.71-17.7 6.08-28.57 11.76-57.69 30.06-79.91 51.61-10.59 10.27-19.94 22.28-28.48 34.28-24.46 34.36-40.83 79.94-43.45 122.15-1.29 20.68 0.37 40.84 3.91 61.2 10.66 63.53 46.26 120.17 98.89 157.33 9.55 6.7 20.06 12.72 30.27 18.4 4.08 2.28 8.91 3.94 12.66 6.68 1.42 1.03 2.93 2.39 3.32 4.17 1.14 5.25-29.03 81.07-33.7 86.97-0.84 1.06-1.59 1.18-2.88 1.31-12.48 1.3-28.93-14.96-40.93-13.41-4.5 0.57-9.8 4.55-13.56 6.94-8.69 5.52-17.09 11.45-25.52 17.36-17.25 12.08-34.24 24.55-53.41 7.29-10.28-9.26-19.71-19.74-29.56-29.46-13.01-12.84-31.94-28.99-41.81-44.07-2.94-4.49-4.76-9.36-4.96-14.78-0.15-4.27 0.66-8.43 2.26-12.39 4.37-10.79 21.5-32.88 28.93-43.26 4.17-5.84 8.79-10.84 10.52-18.02-2.66-7.92-7.16-15.17-10.94-22.6-7.01-13.75-13.63-28.03-17.61-42.99 0.59-0.9 0.85-1.55 0.84-2.65-0.04-4.15-3.1-14.72-6.32-17.32-1.6-1.29-4.9-0.46-6.83-0.18-3.27-0.28-6.82-1.48-10.04-2.25-6.47-1.55-12.9-3.09-19.47-4.15l1.22-0.22 0.22-0.51c-2.62-2.92-13.37-3.07-17.66-3.86l1.57-0.02c-0.75-0.29-1.58-0.65-2.38-0.75-1.63-0.22-2.49 0.23-3.8 1.1-7.27-1.53-15.41-2.73-21.96-6.43-5.35-3.02-8.49-6.85-10-12.77-3.71-14.59-2.06-48.46-2.04-64.88 0.02-14.53-0.9-29.84 0.74-44.24 0.51-4.49 1.47-9.12 3.9-13 2.34-3.75 6.05-6.47 10.06-8.22 7.86-3.44 24.78-5.73 33.86-7.46 12.44-2.38 24.77-5.05 37.17-7.63 0.69-0.26 1.48-0.51 2.13-0.87 5.52-3.05 6.72-14.94 8.68-20.61 3.62-13.08 9.48-26.27 15.41-38.43 4.1-8.4 9.57-16.72 11.64-25.89z"/>
	<path class="s0" d="m209.55 431.18c0.22 0.71 0.43 1.26 0.35 2.02-0.32 2.77-1.66 5.63-2.19 8.39-0.55 2.81 0.19 6.53-1.27 9.04-0.75 1.31-1.73 1.97-3.18 2.27-1.46 0.3-3.11 0.16-4.52-0.24 0.69-0.26 1.48-0.51 2.13-0.87 5.52-3.05 6.72-14.94 8.68-20.61z"/>
	<path class="s0" d="m541.39 785.25c7.41-1.69 15.19-1.38 22.73-1.91 10.15-0.73 20.24-2.21 30.18-4.42 49.48-10.87 92.18-37.17 126.82-73.74 10.06-10.63 19.96-22.34 27.83-34.7 34.55-55.47 45.66-122.38 30.89-186.04-3.29-14.67-7.62-29.74-13.55-43.56-14.16-33.01-41.04-68.06-69.27-90.12-8.5-6.64-17.48-13.06-26.67-18.71-5.99-3.69-12.34-6.91-18.23-10.74-2.8-1.81-5.31-4.11-5.79-7.57-0.31-2.27 24.52-75.03 27.37-82.5 0.95-2.49 2.07-4.83 3.56-7.04 7.9-3.03 21.62 8.54 29.56 10.88 2.56 0.76 5.15 1.04 7.75 0.28 5.43-1.58 10.67-5.77 15.36-8.85q12.63-8.3 25.12-16.81c5.08-3.43 10.18-7.3 15.62-10.14 8.22-4.3 17.04-6.06 26.07-3.02 4.5 1.52 8.92 5.54 12.39 8.69 6.53 5.92 12.14 12.94 18.37 19.18l31.15 30.88c7.85 7.82 18.61 16.13 23.49 26.11-1.86 5.2-1.44 16.55 0.01 21.91q-8.49 15.58-18.5 30.24c-5.72 8.45-16.33 21.95-19.67 30.59-0.78 2-0.41 4.17 0.16 6.19 1.04 3.63 2.78 7.07 4.48 10.43 6.81 13.53 13.37 26.99 18.48 41.28 3.4 9.47 5.4 20.39 9.99 29.28q0.3 0.11 0.6 0.21c6.15 2.05 12.98 2.9 19.35 4.11 13.71 2.6 27.53 4.9 41.18 7.75 6.12 1.28 12.93 2.26 18.5 5.24 3.6 1.92 6.3 5.17 8.13 8.77 1.88 3.72 2.23 7.59 2.55 11.68 1.46 18.56 0.32 37.66 0.18 56.29-0.11 14.73 0.74 29.85-0.31 44.51-0.33 4.63-1.02 9.37-2.61 13.75-1.67 4.63-5.39 7.16-9.76 9.16-5.47 2.5-37.13 8.87-43.5 9.29-6.6-1.84-14.79-1.22-20.84 2.06-0.35 0.19-0.64 0.4-0.97 0.62l0.84-0.16c-1.1 0.58-2.01 1.04-3.21 1.39-0.98 0.28-1.3 0.48-2 1.18-3.63 1.05-7 0.83-9.01 4.5-1.86 3.39-3.18 7.07-4.32 10.75-4.05 13.1-8.08 25.58-13.96 38.04-5.18 10.99-12.75 21.96-15.92 33.68l-0.07 0.25c2.07 7.24 7.26 13.21 11.61 19.25 7.98 11.1 24.3 32.21 28.76 43.92-2.09 5.19-0.33 11.35-1.18 16.8-0.54 3.46-2.82 5.79-2.91 9.4-5.15 9.41-33.3 35.64-42.48 44.84-8.03 8.04-15.72 16.66-24.11 24.29-4.59 4.16-9.57 8.32-15.64 10.05-5.42 1.49-11.15 1.48-16.56-0.05-12.46-3.58-24.01-13.27-34.58-20.53q-7.72-5.2-15.63-10.09c-5.16-3.23-11.03-7.42-17.35-7.56-6.29-0.13-29.07 12.51-37.07 15.93-4.83 2.07-9.68 4.1-14.66 5.78-4.69 1.59-25.02 6.93-27.97 9.18-9.12 6.96-11.6 72.47-25.01 84.99-2.9 2.71-7.16 4.56-11.03 5.27-13.15 2.42-28.04 1.3-41.44 1.31-18.97 0-38.08 0.36-57.03-0.55-8.12-0.39-19.76-0.91-25.51-7.5-2.23-2.57-3.88-5.56-5.07-8.74-2.49-6.64-8.72-34.5-8.18-40.82 0.33-3.78 2.11-7.07 3.97-10.29 3.28-5.7 7.43-10.8 11.01-16.31 7.41-11.41 14.56-22.96 22.18-34.24 8.58-12.71 17.65-25.12 26.39-37.72 4.94-7.11 12.59-20.54 18.94-25.75z"/>
	<path class="s0" d="m319.3 525.28c1.69-9.17 8.13-17.87 15.75-23.04 9.29-6.3 20.03-7.85 30.96-5.69 9.68 1.92 17.34 8.16 22.67 16.28 2.26 3.44 4.57 9.33 8.96 10.32 8.82 1.99 22.43 0.7 31.8 0.58l48.48-0.51c19.46-0.22 38.93 0.22 58.39 0.12q48.69-0.46 97.39-0.1c7.13 0.12 48.89 1.17 52.69-1.11 3.13-1.89 5.59-7.81 7.62-10.86 9.25-13.94 25.8-17.67 41.49-14.76 8.63 1.6 17.35 7.5 22.29 14.77 4.89 7.2 7.56 18.54 5.88 27.12-2.07 10.65-7.92 21.11-17.21 27.06-8.42 5.4-19.99 6.77-29.61 4.42-9.99-2.44-17.74-8.02-23.69-16.35-1.85-2.58-3.79-6.15-6.2-8.2-1.01-0.86-2.07-1.09-3.33-1.31-9.23-1.64-19.64-0.54-28.99-0.45q-22.52 0.16-45.03 0.01l-135.59-0.11c-22.27-0.03-44.56-0.75-66.82-0.39-3.12 0.05-8.27 0.03-10.92 1.75-3.79 2.45-6.36 7.33-9.13 10.83-9.19 11.61-22.56 17.66-37.34 15.19-9.64-1.53-18.25-6.89-23.88-14.86-2.7-3.83-5.64-9.01-6.25-13.71-1.54-5.49-1.32-11.43-0.38-17zm40.63 27.63c11.01-1.66 18.56-11.96 16.84-22.95-1.72-11-12.06-18.49-23.04-16.72-10.91 1.77-18.34 12.01-16.63 22.92 1.71 10.92 11.91 18.4 22.83 16.75zm370.28-0.63c10.85-2.32 17.75-13.02 15.39-23.86-2.36-10.84-13.08-17.71-23.92-15.31-10.78 2.38-17.61 13.04-15.26 23.84 2.35 10.79 12.99 17.65 23.79 15.33z"/>
	<path class="s0" d="m319.3 525.28c2.31 3.71 1.67 11.71 0.64 16.01q-0.13 0.5-0.26 0.99c-1.54-5.49-1.32-11.43-0.38-17z"/>
	<path class="s0" d="m465.95 657.84c-3.54 3.15-5.76 8.02-8.41 11.93-7.73 11.43-20.03 17.1-33.73 16.3-10.37-0.52-20.09-5.22-26.94-13.03-7.15-8.03-9.38-17.71-8.66-28.26 0.64-9.44 5.28-18.83 12.52-24.98 8.23-6.99 19.33-10.15 30.02-9.14 9.54 0.9 18.9 6.6 24.88 13.97 3.43 4.22 6.34 12.12 12.17 12.86 8.43 1.07 17.63 0.26 26.12 0.07q17.71-0.38 35.42-0.42c38.94-0.29 77.92 0.45 116.85-0.12l0.35-0.49c4.81-6.73 9.13-16.9 17.31-20.3 3.25 0.27 6.68-3.01 9.94-3.82 4.93-1.22 13.98 0.98 21.31-1.15 9.16 2.54 16.84 9.54 21.52 17.7 5.18 9.04 6.96 19.78 4.1 29.89-2.78 9.81-9.21 17.39-18.11 22.25-9.26 4.95-20.12 5.99-30.15 2.87-10.43-3.2-19.04-11.87-24.03-21.37q-1.19-2.3-2.3-4.64c-11.46-2.21-24.88-0.86-36.54-0.78l-62.57 0.27-54.4-0.47c-8.58-0.02-18.27-0.86-26.67 0.86zm-35.88 10.37c10.81-2.21 17.82-12.72 15.69-23.55-2.12-10.83-12.58-17.92-23.43-15.87-10.96 2.06-18.14 12.66-15.99 23.61 2.15 10.94 12.8 18.04 23.73 15.81zm255.2-0.87c10.74-0.43 19.14-9.43 18.83-20.18-0.31-10.75-9.22-19.25-19.97-19.05-7.06 0.12-13.51 4.04-16.88 10.24-3.38 6.2-3.16 13.74 0.57 19.74 3.73 6 10.39 9.53 17.45 9.25z"/>
	<path class="s0" d="m410.75 381.44q1.06-0.12 2.12-0.18c13.82-0.84 26.54 3.96 34.44 15.82 2.15 3.23 4.13 7.72 7.05 10.22 1.78 1.52 3.47 1.73 5.73 1.88 7.8 0.52 15.73 0.07 23.55 0.12l57.1-0.08c15.83-0.05 31.67-0.33 47.51-0.24 10.19 0.05 20.18 0.66 30.38 0.03 3.48-2.25 5.32-5.28 7.73-8.53 6.39-8.64 13.7-16.14 24.62-18.37 10.63-2.17 21.26-0.49 30.29 5.6 8.19 5.52 14.25 13.57 16.12 23.36 2.05 10.68-0.01 21.71-6.25 30.62-5.92 8.45-14.25 13.79-24.44 15.54-15.2 1.34-29.74-2.87-38.47-16.19-2.21-3.37-4.38-8.42-7.77-10.7-2.31-1.54-6.81-1.51-9.56-1.6-12.66-0.45-25.46 0.09-38.15 0.05l-70.19-0.44-28.74 0.01c-5.13 0.01-11.07-0.53-16.08 0.57-6.07 1.32-7.7 7.96-10.84 12.5-5.66 8.17-14.09 14.15-23.99 15.72-10.38 1.65-21.5-1.25-29.96-7.45-8.22-6.04-13.32-15.35-14.84-25.37-1.38-9.06 0.45-19.02 6.01-26.42 6.39-8.52 16.02-14.98 26.63-16.47zm10.17 57.08c10.82-2.65 17.46-13.55 14.84-24.38-2.61-10.83-13.48-17.51-24.32-14.94-10.9 2.58-17.62 13.53-15 24.42 2.63 10.89 13.6 17.57 24.48 14.9zm242.21 0.16c10.73-1.65 18.16-11.61 16.66-22.37-1.5-10.76-11.36-18.31-22.14-16.96-7.11 0.89-13.18 5.53-15.9 12.16-2.72 6.62-1.66 14.19 2.76 19.82 4.43 5.62 11.54 8.43 18.62 7.35z"/>
	<path class="s0" d="m549.65 682.62c8.93-0.3 17.69-0.12 26.61 0.48-5.15 12.69-24.92 37.18-33.71 49.85l-66.63 96.15c-14.8 21.15-30.4 41.46-44.07 63.43-3.5 6.34-7.97 12.31-12.02 18.32 3.36-17.9 15.11-41.61 22.2-58.64l37.43-90.62q6.98-16.58 13.38-33.39c5.36-14.21 10.49-29.14 17.59-42.58 8.19-4.3 29.1-2.66 39.22-3z"/>
	<path class="s0" d="m666.78 168.61c0.45 2.67-14.47 39.79-16.99 47.27-6 17.85-12.02 35.79-18.39 53.52-4.74 13.2-9.91 26.21-14.5 39.48l-14.89 43.38c-3.11 8.94-6.8 22.23-12.02 29.87-18.78 1.67-38.35 0.38-57.21 0.14-0.41-0.55-0.61-1.1-0.74-1.78-0.34-1.79 0.68-4.22 1.45-5.76 5.05-10.05 11.78-19.83 17.9-29.27l28.42-43.31 69.52-105.34c6.02-9.14 10.6-19.67 17.45-28.2z"/>
	<path class="s0" d="m423.47 569.98c6.16-1.81 15.16-0.71 21.67-0.81q39.17-0.36 78.34-0.21c40.56 0.01 81.23-1.31 121.78-0.45 2.53 0.05 6.65-0.14 8.8 1.09 0.76 0.44 0.6 0.91 0.74 1.69-1.54 5.58-22.77 36.15-27.1 38.27-1.81 0.89-4.11 0.95-6.1 1.05-8.65 0.44-17.38-0.01-26.04 0.18q-18.83 0.57-37.66 0.4c-6.14-0.01-12.63 0.38-18.72-0.41-1.72-8.21-2.71-16.66-10.3-21.81-2.85-1.94-6.38-2.86-9.75-3.38-8.89-1.38-18.36-1.06-27.35-1.14l-37.81-0.18c-8 0.01-17.71 0.97-25.29-1.79-3.27-1.03-6.47-3.07-8.12-6.18-0.57-1.08-0.84-2.47-0.28-3.62 0.71-1.43 1.82-2.02 3.19-2.7z"/>
	<path class="s0" d="m428.68 582.48c-3.27-1.03-6.47-3.07-8.12-6.18-0.57-1.08-0.84-2.47-0.28-3.62 0.71-1.43 1.82-2.02 3.19-2.7l1.16 0.4c-0.77 1.43-2.13 3.09-1.82 4.67 1.07 0.95 2.1 1.72 3.29 2.51 1.48 1 2.34 1.66 2.7 3.5 0.17 0.87 0.14 0.62-0.12 1.42z"/>
	<path class="s0" d="m460.15 492.27c4.06-5.98 20.43-33.64 24.29-35.93 5.13-3.04 75.87-3.26 82.88-1.07 1.6 2.82-2.77 12.47-2.99 16.3-0.19 3.43 0.34 7.22 2.85 9.77 2.47 2.52 6.33 3.37 9.7 3.92 9.3 1.54 19.04 1.15 28.45 1.01 16.65-0.26 33.31-1.22 49.94-1.42 4.85 0.16 13.23-0.42 16.88 3.11 1.34 1.29 1.88 3.28 1.66 5.08-0.19 1.64-1.14 4.02-2.56 4.91-3.88 2.42-30.76 0.06-36.96-0.12l-87.64-0.08-0.02-0.22c-1.5-1.37-72.1-1.27-80.04-1.44-2.02-1.48-4.25-2.62-6.44-3.82z"/>
	<path class="s0" d="m655.27 484.85c4.85 0.16 13.23-0.42 16.88 3.11 1.34 1.29 1.88 3.28 1.66 5.08-0.19 1.64-1.14 4.02-2.56 4.91-3.88 2.42-30.76 0.06-36.96-0.12-0.64-0.64-0.51-0.28-0.57-0.99 5.32-0.4 25.67-2.88 29.21-0.83l-0.05 0.78c-2.31 1.07-6.01 0.52-8.58 0.54l-0.06 0.36c2.65 0.17 11.03 1.3 13.03 0.61 0.71-0.25 1.74-1.05 2.4-1.46 1.9-1.2 3.15-2.01 3.69-4.35-0.22-1.24-0.57-2.02-1.38-2.97-3.83-4.46-14.01-3.67-19.42-3.99z"/>
	<path class="s1" d="m460.15 492.27c2.19 1.2 4.42 2.34 6.44 3.82 7.93 0.17 78.54 0.07 80.04 1.44l0.02 0.22c-12.45 0.48-25 0.08-37.46 0.14-14.3 0.06-28.7 0.57-42.98 0.08-2.25-0.08-5.61 0.19-7.2-1.5-0.15-1.7 0.42-2.72 1.14-4.2z"/>
	<path class="s2" d="m663.85 616.23c1.44-1.06 3.02-2.01 4.58-2.87 8.19-4.5 17.85-4.59 26.67-2.1-7.34 2.13-16.38-0.07-21.31 1.15-3.26 0.81-6.69 4.09-9.94 3.82z"/>
	<path class="s2" d="m885.22 627.17c0.7-0.7 1.02-0.9 2-1.18 1.2-0.35 2.11-0.81 3.21-1.39l-0.84 0.16c0.33-0.22 0.62-0.43 0.97-0.62 6.05-3.28 14.24-3.9 20.84-2.06-8.33 1.41-18.15 4.52-26.18 5.09z"/>
	<path class="s2" d="m197.35 627.95c1.93-0.28 5.23-1.11 6.83 0.18 3.22 2.6 6.28 13.17 6.32 17.32 0.01 1.1-0.25 1.75-0.84 2.65-1.77-5.75-3.33-11.74-5.85-17.2-2.06-1.17-4.29-2.03-6.46-2.95z"/>
	<path class="s2" d="m882.31 777.56c1.99 6.91 2.22 15.64-1.25 22.11-0.81 1.5-1.7 2.82-2.84 4.09 0.09-3.61 2.37-5.94 2.91-9.4 0.85-5.45-0.91-11.6 1.18-16.8z"/>
	<path class="s2" d="m882.14 281.4c2.83 6.82 2.82 15.08 0.01 21.91-1.45-5.36-1.87-16.71-0.01-21.91z"/>
	<path class="s2" d="m147.01 617.29c1.31-0.87 2.17-1.32 3.8-1.1 0.8 0.1 1.63 0.46 2.38 0.75l-1.57 0.02c4.29 0.79 15.04 0.94 17.66 3.86l-0.22 0.51-1.22 0.22c-6.96-1.32-13.98-2.51-20.83-4.26z"/>
</svg>